<?xml version="1.0" encoding="UTF-8" standalone="no"?>
<svg
   width="420"
   height="420"
   version="1.1"
   viewBox="0 0 315 315"
   id="svg1458"
   sodipodi:docname="moon.svg"
   inkscape:version="1.2 (dc2aeda, 2022-05-15)"
   inkscape:export-filename="moon.png"
   inkscape:export-xdpi="96"
   inkscape:export-ydpi="96"
   xmlns:inkscape="http://www.inkscape.org/namespaces/inkscape"
   xmlns:sodipodi="http://sodipodi.sourceforge.net/DTD/sodipodi-0.dtd"
   xmlns="http://www.w3.org/2000/svg"
   xmlns:svg="http://www.w3.org/2000/svg">
  <defs
     id="defs1462" />
  <sodipodi:namedview
     id="namedview1460"
     pagecolor="#ffffff"
     bordercolor="#666666"
     borderopacity="1.0"
     inkscape:showpageshadow="2"
     inkscape:pageopacity="0.0"
     inkscape:pagecheckerboard="0"
     inkscape:deskcolor="#d1d1d1"
     inkscape:document-units="pt"
     showgrid="false"
     inkscape:zoom="1.0242686"
     inkscape:cx="501.33333"
     inkscape:cy="515.97793"
     inkscape:window-width="3840"
     inkscape:window-height="2506"
     inkscape:window-x="0"
     inkscape:window-y="35"
     inkscape:window-maximized="1"
     inkscape:current-layer="svg1458" />
  <circle
     style="fill:#000000;stroke-width:0.299597;stroke-miterlimit:10"
     id="path1637"
     cx="158.29836"
     cy="157.96272"
     r="154.13486" />
  <path
     d="m 257.0251,179.27824 c -2.77359,-0.003 -5.53155,0.41592 -8.17771,1.24513 -6.96126,-15.3446 -19.76053,-27.27012 -35.55497,-33.13473 -15.79445,-5.86461 -33.27781,-5.18066 -48.56451,1.90019 5.06366,-44.37484 42.91618,-78.536364 88.09222,-78.536364 h 6.90404 l -4.80635,-4.782918 C 238.51581,49.522959 218.07121,37.685276 195.6409,31.649648 173.20793,25.611225 149.58447,25.590396 127.13952,31.587295 104.69856,37.581533 84.231328,49.382749 67.800045,65.800722 51.366767,82.218693 39.549712,102.67595 33.534712,125.11158 c -6.015065,22.4383 -6.01247,46.06443 0.0053,68.50139 6.017661,22.43563 17.837376,42.89022 34.270656,59.30819 16.42862,16.42064 36.891192,28.22439 59.328822,34.22674 22.43763,6.00236 46.06176,5.98646 68.49473,-0.0417 22.43031,-6.02805 42.87758,-17.85801 59.28491,-34.29927 l 4.7959,-4.80109 -6.92734,0.003 c -31.03457,0.0156 -59.81527,-16.20969 -75.86791,-42.77044 l -4.81153,2.91393 v 0.003 c 15.84835,26.2307 43.4645,43.11116 74.03792,45.2559 -24.51513,22.12615 -56.7036,33.80281 -89.70258,32.5318 -32.99966,-1.269 -64.19792,-15.3784 -86.940992,-39.3246 C 46.75753,222.67555 34.270367,190.79054 34.698917,157.76759 35.127819,124.74465 48.441782,93.198353 71.800396,69.855041 94.747761,46.907675 125.62928,33.645264 158.06928,32.808129 c 32.44333,-0.839598 63.96635,10.810895 88.0656,32.544479 -22.59134,1.598611 -43.85445,11.276045 -59.89578,27.265475 -16.04133,15.989417 -25.78884,37.218587 -27.46311,59.804607 -8.42992,5.03247 -15.57818,11.95481 -20.87582,20.22103 -8.1491,-5.10785 -17.86067,-7.12231 -27.36927,-5.68234 -9.50862,1.4401 -18.185413,6.24119 -24.455279,13.53259 -6.2698,7.29133 -9.718892,16.58965 -9.718892,26.20739 h 5.627708 c 0,-8.57298 3.186905,-16.8392 8.942312,-23.19425 5.75248,-6.35556 13.662351,-10.34573 22.194081,-11.19552 8.53106,-0.84998 17.07277,1.49986 23.96949,6.59475 l 2.53702,1.87936 1.57525,-2.7398 c 7.21348,-12.58098 18.90277,-21.98313 32.73947,-26.32917 13.83668,-4.34885 28.80132,-3.32206 41.91534,2.87234 13.11135,6.19701 23.40785,17.10405 28.83793,30.55345 l 1.08135,2.67219 2.64623,-1.12554 h -0.003 c 6.73236,-2.88533 14.46821,-2.19392 20.58502,1.83776 6.11681,4.0317 9.80007,10.86547 9.80474,18.1934 h 5.62771 -0.003 c -0.003,-7.27337 -2.89317,-14.24462 -8.02931,-19.38921 -5.13907,-5.14425 -12.11052,-8.03996 -19.38123,-8.05327 z"
     id="path1456"
     style="fill:#ffffff;stroke-width:0.66545" />
</svg>
