<?xml version="1.0" encoding="UTF-8" standalone="no"?>
<!-- Created with Inkscape (http://www.inkscape.org/) -->

<svg
   width="480"
   height="480"
   viewBox="0 0 127 127"
   version="1.1"
   id="svg3649"
   xml:space="preserve"
   inkscape:version="1.2 (dc2aeda, 2022-05-15)"
   sodipodi:docname="sun.svg"
   inkscape:export-filename="sun.png"
   inkscape:export-xdpi="96"
   inkscape:export-ydpi="96"
   xmlns:inkscape="http://www.inkscape.org/namespaces/inkscape"
   xmlns:sodipodi="http://sodipodi.sourceforge.net/DTD/sodipodi-0.dtd"
   xmlns="http://www.w3.org/2000/svg"
   xmlns:svg="http://www.w3.org/2000/svg"><sodipodi:namedview
     id="namedview3651"
     pagecolor="#ffffff"
     bordercolor="#666666"
     borderopacity="1.0"
     inkscape:showpageshadow="2"
     inkscape:pageopacity="0.0"
     inkscape:pagecheckerboard="0"
     inkscape:deskcolor="#d1d1d1"
     inkscape:document-units="mm"
     showgrid="false"
     inkscape:zoom="0.914906"
     inkscape:cx="397.30857"
     inkscape:cy="561.25984"
     inkscape:window-width="3840"
     inkscape:window-height="2506"
     inkscape:window-x="0"
     inkscape:window-y="35"
     inkscape:window-maximized="1"
     inkscape:current-layer="g3862" /><defs
     id="defs3646" /><g
     inkscape:label="Layer 1"
     inkscape:groupmode="layer"
     id="layer1"><g
       id="g3862"
       transform="matrix(0.35277778,0,0,0.35277778,-69.4752,-68.742224)"
       style="fill:#ececec"><g
         fill-rule="evenodd"
         id="g6230"
         transform="translate(-0.34138375,-0.82535837)"
         style="fill:#f9f9f9"><path
           d="m 387.07,211.7 v 55.219 c 0,7.3516 -5.9648,13.32 -13.32,13.32 -7.3516,0 -13.32,-5.9648 -13.32,-13.32 V 211.7 c 0,-7.3516 5.9648,-13.32 13.32,-13.32 7.3516,0 13.32,5.9648 13.32,13.32 z m 80.605,27.539 -27.609,47.797 c -3.6758,6.3828 -11.863,8.5312 -18.176,4.8555 -6.313,-3.6757 -8.5312,-11.863 -4.8555,-18.176 l 27.609,-47.797 c 3.6758,-6.3828 11.863,-8.5312 18.176,-4.8555 6.3125,3.6758 8.5312,11.863 4.8555,18.176 z m 56.121,64.168 -47.797,27.609 c -6.3828,3.6758 -14.5,1.457 -18.176,-4.8555 -3.6758,-6.3828 -1.5273,-14.5 4.8555,-18.176 l 47.797,-27.609 c 6.3828,-3.6758 14.5,-1.457 18.176,4.8555 3.6758,6.3828 1.5273,14.566 -4.8555,18.176 z m 16.512,83.59 h -55.219 c -7.3516,0 -13.32,-5.9648 -13.32,-13.32 0,-7.3516 5.9648,-13.32 13.32,-13.32 h 55.219 c 7.3516,0 13.32,5.9648 13.32,13.32 0,7.3516 -5.9648,13.32 -13.32,13.32 z m -27.539,80.605 -47.797,-27.609 c -6.3828,-3.6758 -8.5312,-11.863 -4.8555,-18.176 3.6757,-6.313 11.863,-8.5312 18.176,-4.8555 l 47.797,27.609 c 6.3828,3.6758 8.5312,11.863 4.8555,18.176 -3.6758,6.3125 -11.863,8.5312 -18.176,4.8555 z m -64.168,56.051 -27.609,-47.797 c -3.6758,-6.3828 -1.457,-14.5 4.9258,-18.176 6.3828,-3.6758 14.5,-1.457 18.176,4.9258 l 27.609,47.797 c 3.6758,6.3828 1.457,14.5 -4.9258,18.176 -6.3828,3.6758 -14.5,1.457 -18.176,-4.9258 z m -83.59,16.512 v -55.219 c 0,-7.3516 5.9648,-13.32 13.32,-13.32 7.3516,0 13.32,5.9648 13.32,13.32 v 55.219 c 0,7.3516 -5.9648,13.32 -13.32,13.32 -7.3516,0 -13.32,-5.9648 -13.32,-13.32 z m -80.605,-27.539 27.609,-47.797 c 3.6758,-6.3828 11.863,-8.5312 18.176,-4.8555 6.3125,3.6758 8.5312,11.863 4.8555,18.176 l -27.609,47.797 c -3.6758,6.3828 -11.863,8.5312 -18.176,4.8555 -6.3125,-3.6758 -8.5312,-11.863 -4.8555,-18.176 z m -56.051,-64.168 47.797,-27.609 c 6.3828,-3.6758 14.5,-1.457 18.176,4.9258 3.6758,6.3828 1.457,14.5 -4.9258,18.176 l -47.797,27.609 c -6.3828,3.6758 -14.5,1.457 -18.176,-4.9258 -3.6758,-6.3828 -1.457,-14.5 4.9258,-18.176 z m -16.512,-83.59 h 55.219 c 7.3516,0 13.32,5.9648 13.32,13.32 0,7.3516 -5.9648,13.32 -13.32,13.32 h -55.219 c -7.3516,0 -13.32,-5.9648 -13.32,-13.32 0,-7.3516 5.9648,-13.32 13.32,-13.32 z m 27.539,-80.605 47.797,27.609 c 6.3828,3.6758 8.5312,11.863 4.8555,18.176 -3.6757,6.313 -11.863,8.5312 -18.176,4.8555 l -47.797,-27.609 c -6.3828,-3.6758 -8.5312,-11.863 -4.8555,-18.176 3.6757,-6.313 11.863,-8.5312 18.176,-4.8555 z m 64.168,-56.051 27.609,47.797 c 3.6758,6.3828 1.457,14.5 -4.9258,18.176 -6.3828,3.6758 -14.5,1.457 -18.176,-4.9258 l -27.609,-47.797 c -3.6758,-6.3828 -1.457,-14.5 4.9258,-18.176 6.3828,-3.6758 14.5,-1.457 18.176,4.9258 z"
           id="path6226"
           style="fill:#f9f9f9" /><path
           d="m 321.38,321.38 c 14.566,-14.566 34.059,-22.613 54.664,-22.613 20.531,0 40.094,8.1172 54.664,22.613 14.566,14.566 22.613,34.059 22.613,54.664 0,20.531 -8.1172,40.094 -22.613,54.664 -14.566,14.566 -34.059,22.613 -54.664,22.613 -20.531,0 -40.094,-8.1172 -54.664,-22.613 -14.566,-14.566 -22.613,-34.059 -22.613,-54.664 0,-20.531 8.1172,-40.094 22.613,-54.664 z"
           id="path6228"
           style="fill:#f9f9f9" /></g></g></g></svg>
